ffmpeg version 3.4.8-0ubuntu0.2 Copyright (c) 2000-2020 the FFmpeg developers
  built with gcc 7 (Ubuntu 7.5.0-3ubuntu1~18.04)
  configuration: --prefix=/usr --extra-version=0ubuntu0.2 --toolchain=hardened --libdir=/usr/lib/x86_64-linux-gnu --incdir=/usr/include/x86_64-linux-gnu --enable-gpl --disable-stripping --enable-avresample --enable-avisynth --enable-gnutls --enable-ladspa --enable-libass --enable-libbluray --enable-libbs2b --enable-libcaca --enable-libcdio --enable-libflite --enable-libfontconfig --enable-libfreetype --enable-libfribidi --enable-libgme --enable-libgsm --enable-libmp3lame --enable-libmysofa --enable-libopenjpeg --enable-libopenmpt --enable-libopus --enable-libpulse --enable-librubberband --enable-librsvg --enable-libshine --enable-libsnappy --enable-libsoxr --enable-libspeex --enable-libssh --enable-libtheora --enable-libtwolame --enable-libvorbis --enable-libvpx --enable-libwavpack --enable-libwebp --enable-libx265 --enable-libxml2 --enable-libxvid --enable-libzmq --enable-libzvbi --enable-omx --enable-openal --enable-opengl --enable-sdl2 --enable-libdc1394 --enable-libdrm --enable-libiec61883 --enable-chromaprint --enable-frei0r --enable-libopencv --enable-libx264 --enable-shared
  libavutil      55. 78.100 / 55. 78.100
  libavcodec     57.107.100 / 57.107.100
  libavformat    57. 83.100 / 57. 83.100
  libavdevice    57. 10.100 / 57. 10.100
  libavfilter     6.107.100 /  6.107.100
  libavresample   3.  7.  0 /  3.  7.  0
  libswscale      4.  8.100 /  4.  8.100
  libswresample   2.  9.100 /  2.  9.100
  libpostproc    54.  7.100 / 54.  7.100
[rawvideo @ 0x55bcf108ba20] Estimating duration from bitrate, this may be inaccurate
Input #0, rawvideo, from '../../SVC-Encoder-20220109T061506Z-001/SVC-Encoder/Dataset/RollerCoaster/6f_2x2/tile_yuv/f4_t1_480x480.yuv':
  Duration: 00:00:10.00, start: 0.000000, bitrate: 82944 kb/s
    Stream #0:0: Video: rawvideo (I420 / 0x30323449), yuv420p, 480x480, 82944 kb/s, 30 tbr, 30 tbn, 30 tbc
Stream mapping:
  Stream #0:0 -> #0:0 (rawvideo (native) -> h264 (libx264))
Press [q] to stop, [?] for help
[libx264 @ 0x55bcf1098c60] using cpu capabilities: MMX2 SSE2Fast LZCNT SSSE3 SSE4.2 AVX
[libx264 @ 0x55bcf1098c60] profile High, level 3.0
Output #0, rawvideo, to 'RollerCoaster_f4_t1_480x480_x264_QP_24.h264':
  Metadata:
    encoder         : Lavf57.83.100
    Stream #0:0: Video: h264 (libx264), yuv420p, 480x480, q=-1--1, 30 fps, 30 tbn, 30 tbc
    Metadata:
      encoder         : Lavc57.107.100 libx264
    Side data:
      cpb: bitrate max/min/avg: 0/0/0 buffer size: 0 vbv_delay: -1
frame=  300 fps=0.0 q=30.0 LPSNR=Y:inf U:inf V:inf *:inf size=      31kB time=00:00:09.93 bitrate=  25.6kbits/s speed=21.5x    
video:31kB audio:0kB subtitle:0kB other streams:0kB global headers:0kB muxing overhead: 0.000000%
[libx264 @ 0x55bcf1098c60] frame I:2     Avg QP:22.82  size:  2302  PSNR Mean Y:52.46 U:54.60 V:55.98 Avg:53.20 Global:53.15
[libx264 @ 0x55bcf1098c60] frame P:77    Avg QP:23.77  size:   260  PSNR Mean Y:51.79 U:53.68 V:54.76 Avg:52.45 Global:52.43
[libx264 @ 0x55bcf1098c60] frame B:221   Avg QP:29.61  size:    32  PSNR Mean Y:51.65 U:53.70 V:54.80 Avg:52.35 Global:52.34
[libx264 @ 0x55bcf1098c60] consecutive B-frames:  1.3%  1.3%  0.0% 97.3%
[libx264 @ 0x55bcf1098c60] mb I  I16..4: 78.3% 20.6%  1.1%
[libx264 @ 0x55bcf1098c60] mb P  I16..4:  3.0%  0.5%  0.0%  P16..4:  7.2%  0.9%  0.1%  0.0%  0.0%    skip:88.4%
[libx264 @ 0x55bcf1098c60] mb B  I16..4:  0.0%  0.0%  0.0%  B16..8:  1.1%  0.1%  0.0%  direct: 0.0%  skip:98.8%  L0:41.4% L1:56.3% BI: 2.3%
[libx264 @ 0x55bcf1098c60] 8x8 transform intra:16.4% inter:56.3%
[libx264 @ 0x55bcf1098c60] coded y,uvDC,uvAC intra: 2.7% 11.5% 0.0% inter: 0.1% 0.3% 0.0%
[libx264 @ 0x55bcf1098c60] i16 v,h,dc,p: 44% 25% 12% 19%
[libx264 @ 0x55bcf1098c60] i8 v,h,dc,ddl,ddr,vr,hd,vl,hu: 21% 15% 59%  1%  1%  1%  1%  1%  1%
[libx264 @ 0x55bcf1098c60] i4 v,h,dc,ddl,ddr,vr,hd,vl,hu: 18% 14% 21%  2% 12%  6% 22%  0%  5%
[libx264 @ 0x55bcf1098c60] i8c dc,h,v,p: 69% 17% 13%  1%
[libx264 @ 0x55bcf1098c60] Weighted P-Frames: Y:0.0% UV:0.0%
[libx264 @ 0x55bcf1098c60] ref P L0: 81.4%  5.4%  8.9%  4.3%
[libx264 @ 0x55bcf1098c60] ref B L0: 65.2% 28.7%  6.1%
[libx264 @ 0x55bcf1098c60] ref B L1: 78.4% 21.6%
[libx264 @ 0x55bcf1098c60] PSNR Mean Y:51.694 U:53.697 V:54.800 Avg:52.379 Global:52.367 kb/s:25.42
